<mxfile host="65bd71144e">
    <diagram name="Page-1" id="c7558073-3199-34d8-9f00-42111426c3f3">
        <mxGraphModel dx="2140" dy="2042" grid="1" gridSize="10" guides="1" tooltips="1" connect="1" arrows="1" fold="1" page="1" pageScale="1" pageWidth="826" pageHeight="1169" background="none" math="0" shadow="0">
            <root>
                <mxCell id="0"/>
                <mxCell id="1" parent="0"/>
                <mxCell id="14" value="Server" style="whiteSpace=wrap;align=center;verticalAlign=middle;fontStyle=1;strokeWidth=3;fillColor=#FFFFCC" parent="1" vertex="1">
                    <mxGeometry x="-250.00000000000003" y="340.9999999999999" width="90" height="60" as="geometry"/>
                </mxCell>
                <mxCell id="xwTJPt3XtJQMvyNs3hWk-111" value="" style="edgeStyle=none;noEdgeStyle=1;strokeColor=#990000;strokeWidth=3;" parent="1" source="14" target="xwTJPt3XtJQMvyNs3hWk-112" edge="1">
                    <mxGeometry width="100" height="100" relative="1" as="geometry">
                        <mxPoint x="-200" y="370" as="sourcePoint"/>
                        <mxPoint x="-80.49738219895289" y="476" as="targetPoint"/>
                    </mxGeometry>
                </mxCell>
                <mxCell id="xwTJPt3XtJQMvyNs3hWk-112" value="epoll_wait, look for any incoming data to the tracked FDs" style="rounded=0;whiteSpace=wrap;html=1;fillColor=#f8cecc;strokeColor=#b85450;" parent="1" vertex="1">
                    <mxGeometry x="-50" y="341" width="120" height="60" as="geometry"/>
                </mxCell>
                <mxCell id="xwTJPt3XtJQMvyNs3hWk-113" value="epoll&lt;div&gt;&lt;br&gt;&lt;/div&gt;" style="shape=cylinder3;whiteSpace=wrap;html=1;boundedLbl=1;backgroundOutline=1;size=15;fillColor=#f5f5f5;fontColor=#333333;strokeColor=#666666;" parent="1" vertex="1">
                    <mxGeometry x="-110" y="-200" width="60" height="80" as="geometry"/>
                </mxCell>
                <mxCell id="xwTJPt3XtJQMvyNs3hWk-114" value="" style="endArrow=none;dashed=1;html=1;dashPattern=1 3;strokeWidth=2;rounded=0;fillColor=#d5e8d4;strokeColor=#82b366;" parent="1" source="14" target="xwTJPt3XtJQMvyNs3hWk-113" edge="1">
                    <mxGeometry width="50" height="50" relative="1" as="geometry">
                        <mxPoint x="300" y="410" as="sourcePoint"/>
                        <mxPoint x="350" y="360" as="targetPoint"/>
                    </mxGeometry>
                </mxCell>
                <mxCell id="xwTJPt3XtJQMvyNs3hWk-115" value="server FD to epoll&lt;div&gt;EPOLLIN&lt;/div&gt;" style="edgeLabel;html=1;align=center;verticalAlign=middle;resizable=0;points=[];" parent="xwTJPt3XtJQMvyNs3hWk-114" vertex="1" connectable="0">
                    <mxGeometry x="0.0632" y="-1" relative="1" as="geometry">
                        <mxPoint y="1" as="offset"/>
                    </mxGeometry>
                </mxCell>
                <mxCell id="xwTJPt3XtJQMvyNs3hWk-128" value="" style="endArrow=classic;html=1;rounded=0;fillColor=#f8cecc;strokeColor=#b85450;strokeWidth=3;" parent="1" source="xwTJPt3XtJQMvyNs3hWk-112" target="xwTJPt3XtJQMvyNs3hWk-129" edge="1">
                    <mxGeometry width="50" height="50" relative="1" as="geometry">
                        <mxPoint x="140" y="240" as="sourcePoint"/>
                        <mxPoint x="120" y="320" as="targetPoint"/>
                    </mxGeometry>
                </mxCell>
                <mxCell id="xwTJPt3XtJQMvyNs3hWk-130" value="serverFD&amp;nbsp;&lt;div&gt;EPOOLLIN&lt;/div&gt;" style="edgeLabel;html=1;align=center;verticalAlign=middle;resizable=0;points=[];" parent="xwTJPt3XtJQMvyNs3hWk-128" vertex="1" connectable="0">
                    <mxGeometry x="-0.24" y="-1" relative="1" as="geometry">
                        <mxPoint as="offset"/>
                    </mxGeometry>
                </mxCell>
                <mxCell id="xwTJPt3XtJQMvyNs3hWk-129" value="Handle new client" style="ellipse;whiteSpace=wrap;html=1;aspect=fixed;fillColor=#dae8fc;strokeColor=#6c8ebf;" parent="1" vertex="1">
                    <mxGeometry x="180" y="-10" width="80" height="80" as="geometry"/>
                </mxCell>
                <mxCell id="xwTJPt3XtJQMvyNs3hWk-135" value="" style="edgeStyle=none;noEdgeStyle=1;strokeColor=#990000;strokeWidth=3;rounded=0;" parent="1" source="xwTJPt3XtJQMvyNs3hWk-129" target="xwTJPt3XtJQMvyNs3hWk-150" edge="1">
                    <mxGeometry width="100" height="100" relative="1" as="geometry">
                        <mxPoint x="260" y="230" as="sourcePoint"/>
                        <mxPoint x="368" y="30" as="targetPoint"/>
                    </mxGeometry>
                </mxCell>
                <mxCell id="xwTJPt3XtJQMvyNs3hWk-137" value="" style="endArrow=classic;html=1;rounded=0;fillColor=#f8cecc;strokeColor=#b85450;strokeWidth=3;" parent="1" source="xwTJPt3XtJQMvyNs3hWk-150" target="xwTJPt3XtJQMvyNs3hWk-112" edge="1">
                    <mxGeometry width="50" height="50" relative="1" as="geometry">
                        <mxPoint x="160" y="310" as="sourcePoint"/>
                        <mxPoint x="390" y="50" as="targetPoint"/>
                        <Array as="points">
                            <mxPoint x="440" y="-40"/>
                            <mxPoint x="10" y="-40"/>
                        </Array>
                    </mxGeometry>
                </mxCell>
                <mxCell id="xwTJPt3XtJQMvyNs3hWk-139" value="" style="endArrow=none;dashed=1;html=1;dashPattern=1 3;strokeWidth=2;rounded=0;fillColor=#d5e8d4;strokeColor=#82b366;" parent="1" source="xwTJPt3XtJQMvyNs3hWk-113" target="xwTJPt3XtJQMvyNs3hWk-150" edge="1">
                    <mxGeometry width="50" height="50" relative="1" as="geometry">
                        <mxPoint x="400" y="351" as="sourcePoint"/>
                        <mxPoint x="370.6999999999998" as="targetPoint"/>
                    </mxGeometry>
                </mxCell>
                <mxCell id="xwTJPt3XtJQMvyNs3hWk-219" value="Client FD to epoll&lt;div&gt;EPOLLIN&lt;/div&gt;" style="edgeLabel;html=1;align=center;verticalAlign=middle;resizable=0;points=[];" parent="xwTJPt3XtJQMvyNs3hWk-139" vertex="1" connectable="0">
                    <mxGeometry x="-0.4664" y="-2" relative="1" as="geometry">
                        <mxPoint as="offset"/>
                    </mxGeometry>
                </mxCell>
                <mxCell id="xwTJPt3XtJQMvyNs3hWk-141" value="Recieve&lt;div&gt;Message&lt;/div&gt;" style="ellipse;whiteSpace=wrap;html=1;aspect=fixed;fillColor=#dae8fc;strokeColor=#6c8ebf;" parent="1" vertex="1">
                    <mxGeometry x="190" y="250" width="80" height="80" as="geometry"/>
                </mxCell>
                <mxCell id="xwTJPt3XtJQMvyNs3hWk-144" value="" style="endArrow=classic;html=1;rounded=0;fillColor=#f8cecc;strokeColor=#b85450;strokeWidth=3;" parent="1" source="xwTJPt3XtJQMvyNs3hWk-112" target="xwTJPt3XtJQMvyNs3hWk-141" edge="1">
                    <mxGeometry width="50" height="50" relative="1" as="geometry">
                        <mxPoint x="107" y="461" as="sourcePoint"/>
                        <mxPoint x="270" y="289" as="targetPoint"/>
                    </mxGeometry>
                </mxCell>
                <mxCell id="xwTJPt3XtJQMvyNs3hWk-145" value="ClientFD&lt;div&gt;EPOLLIN&lt;/div&gt;" style="edgeLabel;html=1;align=center;verticalAlign=middle;resizable=0;points=[];" parent="xwTJPt3XtJQMvyNs3hWk-144" vertex="1" connectable="0">
                    <mxGeometry x="-0.24" y="-1" relative="1" as="geometry">
                        <mxPoint as="offset"/>
                    </mxGeometry>
                </mxCell>
                <mxCell id="xwTJPt3XtJQMvyNs3hWk-146" value="Parser / Command Launcher" style="whiteSpace=wrap;align=center;verticalAlign=middle;fontStyle=1;strokeWidth=3;fillColor=#FFFFCC" parent="1" vertex="1">
                    <mxGeometry x="368.00000000000006" y="260" width="90" height="60" as="geometry"/>
                </mxCell>
                <mxCell id="xwTJPt3XtJQMvyNs3hWk-147" value="" style="edgeStyle=none;noEdgeStyle=1;strokeColor=#990000;strokeWidth=3;rounded=0;" parent="1" source="xwTJPt3XtJQMvyNs3hWk-141" target="xwTJPt3XtJQMvyNs3hWk-146" edge="1">
                    <mxGeometry width="100" height="100" relative="1" as="geometry">
                        <mxPoint x="260" y="240" as="sourcePoint"/>
                        <mxPoint x="358" y="240" as="targetPoint"/>
                    </mxGeometry>
                </mxCell>
                <mxCell id="xwTJPt3XtJQMvyNs3hWk-148" value="Validator" style="whiteSpace=wrap;align=center;verticalAlign=middle;fontStyle=1;strokeWidth=3;fillColor=#FFFFCC" parent="1" vertex="1">
                    <mxGeometry x="920" y="341" width="90" height="60" as="geometry"/>
                </mxCell>
                <mxCell id="xwTJPt3XtJQMvyNs3hWk-149" value="COMMAND thats parsed" style="rounded=0;whiteSpace=wrap;html=1;fillColor=#dae8fc;strokeColor=#6c8ebf;" parent="1" vertex="1">
                    <mxGeometry x="540" y="351" width="70" height="40" as="geometry"/>
                </mxCell>
                <mxCell id="xwTJPt3XtJQMvyNs3hWk-150" value="Client Object&lt;div&gt;&lt;br&gt;&lt;/div&gt;" style="ellipse;whiteSpace=wrap;html=1;aspect=fixed;fillColor=#FFFFCC;strokeColor=default;fontStyle=1;fontSize=16;" parent="1" vertex="1">
                    <mxGeometry x="400" y="-10" width="80" height="80" as="geometry"/>
                </mxCell>
                <mxCell id="xwTJPt3XtJQMvyNs3hWk-154" value="" style="endArrow=none;dashed=1;html=1;dashPattern=1 3;strokeWidth=2;rounded=0;fillColor=#d5e8d4;strokeColor=#82b366;" parent="1" source="xwTJPt3XtJQMvyNs3hWk-113" target="xwTJPt3XtJQMvyNs3hWk-112" edge="1">
                    <mxGeometry width="50" height="50" relative="1" as="geometry">
                        <mxPoint x="300" y="167" as="sourcePoint"/>
                        <mxPoint x="448" as="targetPoint"/>
                    </mxGeometry>
                </mxCell>
                <mxCell id="xwTJPt3XtJQMvyNs3hWk-155" value="&lt;div&gt;&lt;br&gt;&lt;/div&gt;" style="edgeLabel;html=1;align=center;verticalAlign=middle;resizable=0;points=[];" parent="xwTJPt3XtJQMvyNs3hWk-154" vertex="1" connectable="0">
                    <mxGeometry x="0.0632" y="-1" relative="1" as="geometry">
                        <mxPoint y="1" as="offset"/>
                    </mxGeometry>
                </mxCell>
                <mxCell id="xwTJPt3XtJQMvyNs3hWk-171" value="" style="endArrow=classic;html=1;rounded=0;startArrow=none;startFill=0;endFill=1;fillColor=#f8cecc;strokeColor=#b85450;strokeWidth=3;" parent="1" source="xwTJPt3XtJQMvyNs3hWk-148" target="xwTJPt3XtJQMvyNs3hWk-150" edge="1">
                    <mxGeometry width="50" height="50" relative="1" as="geometry">
                        <mxPoint x="350" y="40" as="sourcePoint"/>
                        <mxPoint x="400" y="-10" as="targetPoint"/>
                    </mxGeometry>
                </mxCell>
                <mxCell id="xwTJPt3XtJQMvyNs3hWk-172" value="modify Client object" style="edgeLabel;html=1;align=center;verticalAlign=middle;resizable=0;points=[];" parent="xwTJPt3XtJQMvyNs3hWk-171" vertex="1" connectable="0">
                    <mxGeometry x="0.4027" y="-1" relative="1" as="geometry">
                        <mxPoint as="offset"/>
                    </mxGeometry>
                </mxCell>
                <mxCell id="xwTJPt3XtJQMvyNs3hWk-173" value="&lt;div&gt;Channel Object&lt;/div&gt;" style="ellipse;whiteSpace=wrap;html=1;aspect=fixed;fillColor=#FFFFCC;strokeColor=default;fontStyle=1;fontSize=16;" parent="1" vertex="1">
                    <mxGeometry x="610" y="50" width="80" height="80" as="geometry"/>
                </mxCell>
                <mxCell id="xwTJPt3XtJQMvyNs3hWk-174" value="" style="endArrow=none;html=1;rounded=0;strokeWidth=3;fillColor=#f8cecc;strokeColor=#b85450;startArrow=classic;startFill=1;" parent="1" source="xwTJPt3XtJQMvyNs3hWk-173" target="xwTJPt3XtJQMvyNs3hWk-148" edge="1">
                    <mxGeometry width="50" height="50" relative="1" as="geometry">
                        <mxPoint x="910" y="300" as="sourcePoint"/>
                        <mxPoint x="740" y="110" as="targetPoint"/>
                    </mxGeometry>
                </mxCell>
                <mxCell id="xwTJPt3XtJQMvyNs3hWk-175" value="modify or create&lt;span style=&quot;background-color: light-dark(#ffffff, var(--ge-dark-color, #121212)); color: light-dark(rgb(0, 0, 0), rgb(255, 255, 255));&quot;&gt;&amp;nbsp;channel&lt;/span&gt;&lt;div&gt;object&lt;/div&gt;" style="edgeLabel;html=1;align=center;verticalAlign=middle;resizable=0;points=[];" parent="xwTJPt3XtJQMvyNs3hWk-174" vertex="1" connectable="0">
                    <mxGeometry x="0.4027" y="-1" relative="1" as="geometry">
                        <mxPoint as="offset"/>
                    </mxGeometry>
                </mxCell>
                <mxCell id="xwTJPt3XtJQMvyNs3hWk-177" value="Send ERR_ messages to the Client" style="whiteSpace=wrap;align=center;verticalAlign=middle;fontStyle=1;strokeWidth=3;fillColor=#dae8fc;strokeColor=#6c8ebf;" parent="1" vertex="1">
                    <mxGeometry x="980" width="90" height="60" as="geometry"/>
                </mxCell>
                <mxCell id="xwTJPt3XtJQMvyNs3hWk-178" value="Send RPL_messages to the client" style="whiteSpace=wrap;align=center;verticalAlign=middle;fontStyle=1;strokeWidth=3;fillColor=#dae8fc;strokeColor=#6c8ebf;" parent="1" vertex="1">
                    <mxGeometry x="870" y="100" width="90" height="60" as="geometry"/>
                </mxCell>
                <mxCell id="xwTJPt3XtJQMvyNs3hWk-194" value="" style="endArrow=classic;html=1;rounded=0;fillColor=#f8cecc;strokeColor=#b85450;strokeWidth=3;startArrow=none;startFill=0;" parent="1" source="xwTJPt3XtJQMvyNs3hWk-149" target="xwTJPt3XtJQMvyNs3hWk-148" edge="1">
                    <mxGeometry width="50" height="50" relative="1" as="geometry">
                        <mxPoint x="690" y="547" as="sourcePoint"/>
                        <mxPoint x="861" y="270" as="targetPoint"/>
                    </mxGeometry>
                </mxCell>
                <mxCell id="xwTJPt3XtJQMvyNs3hWk-195" value="Validate arguments that&lt;div&gt;have specific requirements&lt;/div&gt;&lt;div&gt;eg: nickname, channelname,&lt;/div&gt;&lt;div&gt;mode flag, privmsg message etc&lt;/div&gt;" style="edgeLabel;html=1;align=center;verticalAlign=middle;resizable=0;points=[];" parent="xwTJPt3XtJQMvyNs3hWk-194" vertex="1" connectable="0">
                    <mxGeometry x="-0.24" y="-1" relative="1" as="geometry">
                        <mxPoint as="offset"/>
                    </mxGeometry>
                </mxCell>
                <mxCell id="xwTJPt3XtJQMvyNs3hWk-196" value="" style="endArrow=classic;html=1;rounded=0;fillColor=#f8cecc;strokeColor=#b85450;strokeWidth=3;" parent="1" source="xwTJPt3XtJQMvyNs3hWk-146" target="xwTJPt3XtJQMvyNs3hWk-149" edge="1">
                    <mxGeometry width="50" height="50" relative="1" as="geometry">
                        <mxPoint x="38" y="351" as="sourcePoint"/>
                        <mxPoint x="209" y="74" as="targetPoint"/>
                    </mxGeometry>
                </mxCell>
                <mxCell id="xwTJPt3XtJQMvyNs3hWk-202" value="" style="endArrow=classic;html=1;strokeWidth=2;rounded=0;fillColor=#dae8fc;strokeColor=#6c8ebf;endFill=1;dashed=1;" parent="1" source="xwTJPt3XtJQMvyNs3hWk-173" target="xwTJPt3XtJQMvyNs3hWk-177" edge="1">
                    <mxGeometry width="50" height="50" relative="1" as="geometry">
                        <mxPoint x="220" y="197" as="sourcePoint"/>
                        <mxPoint x="368" y="30" as="targetPoint"/>
                    </mxGeometry>
                </mxCell>
                <mxCell id="xwTJPt3XtJQMvyNs3hWk-203" value="&lt;div&gt;&lt;br&gt;&lt;/div&gt;" style="edgeLabel;html=1;align=center;verticalAlign=middle;resizable=0;points=[];" parent="xwTJPt3XtJQMvyNs3hWk-202" vertex="1" connectable="0">
                    <mxGeometry x="0.0632" y="-1" relative="1" as="geometry">
                        <mxPoint y="1" as="offset"/>
                    </mxGeometry>
                </mxCell>
                <mxCell id="xwTJPt3XtJQMvyNs3hWk-206" value="" style="edgeStyle=none;noEdgeStyle=1;strokeColor=#990000;strokeWidth=2;rounded=0;" parent="1" source="xwTJPt3XtJQMvyNs3hWk-177" edge="1">
                    <mxGeometry width="100" height="100" relative="1" as="geometry">
                        <mxPoint x="230" y="60" as="sourcePoint"/>
                        <mxPoint x="440" y="-40" as="targetPoint"/>
                        <Array as="points">
                            <mxPoint x="965" y="-40"/>
                        </Array>
                    </mxGeometry>
                </mxCell>
                <mxCell id="xwTJPt3XtJQMvyNs3hWk-207" value="" style="edgeStyle=none;noEdgeStyle=1;strokeColor=#990000;strokeWidth=2;rounded=0;" parent="1" source="xwTJPt3XtJQMvyNs3hWk-178" edge="1">
                    <mxGeometry width="100" height="100" relative="1" as="geometry">
                        <mxPoint x="230" y="60" as="sourcePoint"/>
                        <mxPoint x="910" y="-40" as="targetPoint"/>
                    </mxGeometry>
                </mxCell>
                <mxCell id="xwTJPt3XtJQMvyNs3hWk-209" value="" style="endArrow=classic;html=1;strokeWidth=2;rounded=0;fillColor=#dae8fc;strokeColor=#6c8ebf;endFill=1;dashed=1;" parent="1" source="xwTJPt3XtJQMvyNs3hWk-150" target="xwTJPt3XtJQMvyNs3hWk-177" edge="1">
                    <mxGeometry width="50" height="50" relative="1" as="geometry">
                        <mxPoint x="700" y="84" as="sourcePoint"/>
                        <mxPoint x="930" y="47" as="targetPoint"/>
                    </mxGeometry>
                </mxCell>
                <mxCell id="xwTJPt3XtJQMvyNs3hWk-210" value="&lt;div&gt;&lt;br&gt;&lt;/div&gt;" style="edgeLabel;html=1;align=center;verticalAlign=middle;resizable=0;points=[];" parent="xwTJPt3XtJQMvyNs3hWk-209" vertex="1" connectable="0">
                    <mxGeometry x="0.0632" y="-1" relative="1" as="geometry">
                        <mxPoint y="1" as="offset"/>
                    </mxGeometry>
                </mxCell>
                <mxCell id="xwTJPt3XtJQMvyNs3hWk-211" value="" style="endArrow=classic;html=1;strokeWidth=2;rounded=0;fillColor=#dae8fc;strokeColor=#6c8ebf;endFill=1;dashed=1;" parent="1" source="xwTJPt3XtJQMvyNs3hWk-173" target="xwTJPt3XtJQMvyNs3hWk-178" edge="1">
                    <mxGeometry width="50" height="50" relative="1" as="geometry">
                        <mxPoint x="700" y="84" as="sourcePoint"/>
                        <mxPoint x="930" y="47" as="targetPoint"/>
                    </mxGeometry>
                </mxCell>
                <mxCell id="xwTJPt3XtJQMvyNs3hWk-212" value="&lt;div&gt;&lt;br&gt;&lt;/div&gt;" style="edgeLabel;html=1;align=center;verticalAlign=middle;resizable=0;points=[];" parent="xwTJPt3XtJQMvyNs3hWk-211" vertex="1" connectable="0">
                    <mxGeometry x="0.0632" y="-1" relative="1" as="geometry">
                        <mxPoint y="1" as="offset"/>
                    </mxGeometry>
                </mxCell>
                <mxCell id="xwTJPt3XtJQMvyNs3hWk-213" value="" style="endArrow=classic;html=1;strokeWidth=2;rounded=0;fillColor=#dae8fc;strokeColor=#6c8ebf;endFill=1;dashed=1;" parent="1" source="xwTJPt3XtJQMvyNs3hWk-150" target="xwTJPt3XtJQMvyNs3hWk-178" edge="1">
                    <mxGeometry width="50" height="50" relative="1" as="geometry">
                        <mxPoint x="699" y="96" as="sourcePoint"/>
                        <mxPoint x="860" y="123" as="targetPoint"/>
                    </mxGeometry>
                </mxCell>
                <mxCell id="xwTJPt3XtJQMvyNs3hWk-214" value="&lt;div&gt;&lt;br&gt;&lt;/div&gt;" style="edgeLabel;html=1;align=center;verticalAlign=middle;resizable=0;points=[];" parent="xwTJPt3XtJQMvyNs3hWk-213" vertex="1" connectable="0">
                    <mxGeometry x="0.0632" y="-1" relative="1" as="geometry">
                        <mxPoint y="1" as="offset"/>
                    </mxGeometry>
                </mxCell>
                <mxCell id="xwTJPt3XtJQMvyNs3hWk-215" value="" style="endArrow=classic;html=1;strokeWidth=2;rounded=0;fillColor=#dae8fc;strokeColor=#6c8ebf;endFill=1;dashed=1;" parent="1" source="xwTJPt3XtJQMvyNs3hWk-148" target="xwTJPt3XtJQMvyNs3hWk-177" edge="1">
                    <mxGeometry width="50" height="50" relative="1" as="geometry">
                        <mxPoint x="1090" y="310" as="sourcePoint"/>
                        <mxPoint x="990" y="47" as="targetPoint"/>
                    </mxGeometry>
                </mxCell>
                <mxCell id="xwTJPt3XtJQMvyNs3hWk-216" value="&lt;div&gt;&lt;br&gt;&lt;/div&gt;" style="edgeLabel;html=1;align=center;verticalAlign=middle;resizable=0;points=[];" parent="xwTJPt3XtJQMvyNs3hWk-215" vertex="1" connectable="0">
                    <mxGeometry x="0.0632" y="-1" relative="1" as="geometry">
                        <mxPoint y="1" as="offset"/>
                    </mxGeometry>
                </mxCell>
            </root>
        </mxGraphModel>
    </diagram>
</mxfile>
